<svg width="1080" height="780" viewBox="0 0 1080 780" fill="none" xmlns="http://www.w3.org/2000/svg">
<rect width="1080" height="780" fill="white"/>
<path fill-rule="evenodd" clip-rule="evenodd" d="M100.485 54.3432C101.266 55.1242 101.266 56.3906 100.485 57.1716L89.1715 68.4853C88.3904 69.2664 87.1241 69.2664 86.3431 68.4853C85.562 67.7043 85.562 66.4379 86.3431 65.6569L97.6568 54.3432C98.4378 53.5621 99.7042 53.5621 100.485 54.3432Z" fill="#E6E7E8"/>
<path fill-rule="evenodd" clip-rule="evenodd" d="M406.556 230.414C407.338 231.195 407.338 232.462 406.556 233.243L395.243 244.556C394.462 245.337 393.195 245.337 392.414 244.556C391.633 243.775 391.633 242.509 392.414 241.728L403.728 230.414C404.509 229.633 405.775 229.633 406.556 230.414Z" fill="#E6E7E8"/>
<path fill-rule="evenodd" clip-rule="evenodd" d="M964.628 125.556C963.847 126.337 962.58 126.337 961.799 125.556L950.485 114.243C949.704 113.462 949.704 112.195 950.485 111.414C951.267 110.633 952.533 110.633 953.314 111.414L964.628 122.728C965.409 123.509 965.409 124.775 964.628 125.556Z" fill="#E6E7E8"/>
<path fill-rule="evenodd" clip-rule="evenodd" d="M981.628 661.556C980.847 662.337 979.58 662.337 978.799 661.556L967.485 650.243C966.704 649.462 966.704 648.195 967.485 647.414C968.267 646.633 969.533 646.633 970.314 647.414L981.628 658.728C982.409 659.509 982.409 660.775 981.628 661.556Z" fill="#E6E7E8"/>
<path fill-rule="evenodd" clip-rule="evenodd" d="M769.628 377.556C768.847 378.337 767.58 378.337 766.799 377.556L755.485 366.243C754.704 365.462 754.704 364.195 755.485 363.414C756.267 362.633 757.533 362.633 758.314 363.414L769.628 374.728C770.409 375.509 770.409 376.775 769.628 377.556Z" fill="#E6E7E8"/>
<path fill-rule="evenodd" clip-rule="evenodd" d="M364.628 663.556C363.847 664.337 362.58 664.337 361.799 663.556L350.485 652.243C349.704 651.462 349.704 650.195 350.485 649.414C351.267 648.633 352.533 648.633 353.314 649.414L364.628 660.728C365.409 661.509 365.409 662.775 364.628 663.556Z" fill="#E6E7E8"/>
<path fill-rule="evenodd" clip-rule="evenodd" d="M288.556 133.556C287.775 134.337 286.509 134.337 285.728 133.556L274.414 122.243C273.633 121.462 273.633 120.195 274.414 119.414C275.195 118.633 276.462 118.633 277.243 119.414L288.556 130.728C289.337 131.509 289.337 132.775 288.556 133.556Z" fill="#E6E7E8"/>
<path fill-rule="evenodd" clip-rule="evenodd" d="M100.485 318.414C101.266 319.195 101.266 320.462 100.485 321.243L89.1715 332.556C88.3904 333.337 87.1241 333.337 86.3431 332.556C85.562 331.775 85.562 330.509 86.3431 329.728L97.6568 318.414C98.4378 317.633 99.7042 317.633 100.485 318.414Z" fill="#E6E7E8"/>
<path fill-rule="evenodd" clip-rule="evenodd" d="M406.556 494.485C407.338 495.266 407.338 496.533 406.556 497.314L395.243 508.627C394.462 509.408 393.195 509.408 392.414 508.627C391.633 507.846 391.633 506.58 392.414 505.799L403.728 494.485C404.509 493.704 405.775 493.704 406.556 494.485Z" fill="#E6E7E8"/>
<path fill-rule="evenodd" clip-rule="evenodd" d="M700.556 85.5564C699.775 86.3374 698.509 86.3374 697.728 85.5564L686.414 74.2427C685.633 73.4616 685.633 72.1953 686.414 71.4142C687.195 70.6332 688.462 70.6332 689.243 71.4142L700.556 82.7279C701.337 83.509 701.337 84.7753 700.556 85.5564Z" fill="#E6E7E8"/>
<path fill-rule="evenodd" clip-rule="evenodd" d="M717.556 631.556C716.775 632.337 715.509 632.337 714.728 631.556L703.414 620.243C702.633 619.462 702.633 618.195 703.414 617.414C704.195 616.633 705.462 616.633 706.243 617.414L717.556 628.728C718.337 629.509 718.337 630.775 717.556 631.556Z" fill="#E6E7E8"/>
<path fill-rule="evenodd" clip-rule="evenodd" d="M505.556 377.556C504.775 378.337 503.509 378.337 502.728 377.556L491.414 366.243C490.633 365.462 490.633 364.195 491.414 363.414C492.195 362.633 493.462 362.633 494.243 363.414L505.556 374.728C506.337 375.509 506.337 376.775 505.556 377.556Z" fill="#E6E7E8"/>
<path fill-rule="evenodd" clip-rule="evenodd" d="M100.556 683.556C99.7753 684.337 98.5089 684.337 97.7279 683.556L86.4142 672.243C85.6331 671.462 85.6331 670.195 86.4142 669.414C87.1952 668.633 88.4615 668.633 89.2426 669.414L100.556 680.728C101.337 681.509 101.337 682.775 100.556 683.556Z" fill="#E6E7E8"/>
</svg>
