<svg width="114" height="114" viewBox="0 0 114 114" fill="none" xmlns="http://www.w3.org/2000/svg">
<rect y="57" width="80.6102" height="80.6102" transform="rotate(-45 0 57)" fill="white"/>
<path fill-rule="evenodd" clip-rule="evenodd" d="M59 72.4556L71.2654 60.1901C71.8512 59.6044 72.8009 59.6044 73.3867 60.1901C73.9725 60.7759 73.9725 61.7257 73.3867 62.3115L58.5606 77.1376L57.5 78.1982L56.4393 77.1376L41.6132 62.3115C41.0274 61.7257 41.0274 60.7759 41.6132 60.1901C42.199 59.6044 43.1488 59.6044 43.7345 60.1901L56 72.4556L56 37.5C56 36.6716 56.6716 36 57.5 36C58.3284 36 59 36.6716 59 37.5L59 72.4556Z" fill="#495057"/>
</svg>
