<svg width="160" height="160" viewBox="0 0 160 160" fill="none" xmlns="http://www.w3.org/2000/svg">
<path d="M110.681 101.614V99.5192C111.919 99.8949 113.026 100.082 113.999 100.082C115.326 100.082 115.991 99.7483 115.991 99.0793C115.991 98.8294 115.896 98.6203 115.709 98.4502C115.51 98.2697 115.001 98.0207 114.18 97.7013C112.722 97.1321 111.766 96.6427 111.319 96.234C110.744 95.7039 110.455 95.0279 110.455 94.2045C110.455 93.1615 110.873 92.3649 111.713 91.8165C112.539 91.2725 113.619 91 114.951 91C115.698 91 116.667 91.1137 117.855 91.341L118.13 91.3861V93.4001C117.097 93.007 116.137 92.8109 115.246 92.8109C114.005 92.8109 113.384 93.1372 113.384 93.7923C113.384 94.0361 113.51 94.2357 113.76 94.391C113.96 94.5099 114.539 94.7746 115.496 95.185C116.842 95.7585 117.744 96.2575 118.197 96.6827C118.732 97.1868 119 97.8384 119 98.6385C119 99.7865 118.478 100.663 117.437 101.267C116.583 101.755 115.479 102 114.13 102C112.988 102 111.837 101.872 110.681 101.614V101.614ZM106.289 91.1839V98.2809L102.471 91.1839H98.8712V101.786H101.059V94.594L104.979 101.786H108.476V91.1839H106.289ZM88.7346 91.1839V101.786H96.8281V99.7595H91.7275V97.244H96.0555V95.4955H91.7275V93.1024H96.6988V91.1839H88.7346V91.1839ZM82.0627 91.1839L79.1944 97.9572L76.398 91.1839H72.3713V101.786H74.5589V94.2799L77.7566 101.892H79.6822L82.9427 94.2799V101.786H85.8865V91.1839H82.0627ZM62.2511 91.1839V101.786H70.3436V99.7595H65.2441V97.244H69.5711V95.4955H65.2441V93.1024H70.2153V91.1839H62.2511V91.1839ZM56.2979 101.785H57.8504H59.4037V96.4841V91.1833H57.8504H56.2979V96.4841V101.785ZM46.2257 101.614V99.5192C47.4751 99.8949 48.5807 100.082 49.5435 100.082C50.8712 100.082 51.5355 99.7483 51.5355 99.0793C51.5355 98.8294 51.4381 98.6203 51.2452 98.4502C51.0459 98.2697 50.54 98.0207 49.7237 97.7013C48.2613 97.1278 47.3058 96.6384 46.8618 96.234C46.2885 95.6995 46 95.0262 46 94.2114C46 93.1641 46.4195 92.3649 47.2576 91.8165C48.0848 91.2725 49.164 91 50.4935 91C51.227 91 52.2881 91.1284 53.6749 91.3861V93.4001C52.6429 93.007 51.6838 92.8109 50.7993 92.8109C49.5517 92.8109 48.9284 93.1372 48.9284 93.7923C48.9284 94.0361 49.0548 94.2357 49.306 94.391C49.5153 94.5151 50.0913 94.7798 51.0332 95.185C52.3891 95.7585 53.2936 96.2575 53.7422 96.6827C54.2764 97.1868 54.5448 97.8384 54.5448 98.6385C54.5448 99.7865 54.0207 100.663 52.9724 101.267C52.1252 101.755 51.0241 102 49.6736 102C48.5325 102 47.3832 101.872 46.2257 101.614Z" fill="#EA7939"/>
<path d="M69.2884 112.309H71.8057V110.279H69.2884V107.339H66.6179V110.28H65.1363V112.309H66.6179V116.905C66.6179 118.47 66.7712 119.995 69.5384 119.995C70.3842 119.995 71.4015 119.754 71.979 119.401L71.4015 117.668C70.98 117.836 70.5758 117.967 70.2291 117.967C69.5184 117.967 69.2884 117.557 69.2884 116.533V112.309V112.309ZM132.331 110.821L132.338 110.799C131.488 110.259 130.373 109.934 129.156 109.996C127.182 110.096 125.63 111.236 125.738 113.206C125.845 115.178 127.328 115.643 128.788 115.979C129.626 116.179 130.327 116.331 130.366 117.055C130.405 117.762 129.901 118.067 129.192 118.104C128.323 118.147 127.225 117.773 126.517 117.42L125.72 119.195C126.282 119.558 127.727 120.076 129.428 119.991C131.652 119.877 133.107 118.743 132.994 116.642C132.889 114.708 131.292 114.285 129.869 113.928C128.992 113.713 128.346 113.502 128.306 112.778C128.273 112.163 128.779 111.895 129.412 111.863C130.068 111.83 130.774 112.108 131.524 112.618L132.331 110.821V110.821ZM121.509 113.853C121.547 112.868 122.162 112.234 123.122 112.234C123.622 112.234 124.084 112.364 124.486 112.569L124.966 110.336C124.506 110.093 123.911 110.001 123.372 110.001C122.469 110.001 121.528 110.521 121.067 111.62L120.817 110.279H118.646L118.838 111.918V119.716H121.509V113.853ZM92.2858 119.716V113.667C92.2858 112.774 92.94 111.992 93.9573 111.992C94.9764 111.992 95.1479 112.755 95.1479 113.779V119.716H97.8184V113.276C97.8184 111.043 96.6661 110 94.7648 110C93.4774 110 92.5167 110.523 91.8634 111.397L91.6709 110.279H89.442L89.6154 112.029V119.716H92.2858V119.716ZM84.4582 107.331C84.4582 107.723 84.5996 108.056 84.8514 108.291C85.1032 108.525 85.4654 108.662 85.9079 108.662C86.3404 108.662 86.7081 108.525 86.9663 108.291C87.2254 108.056 87.3759 107.723 87.3759 107.331C87.3759 106.966 87.2254 106.634 86.9663 106.392C86.7081 106.15 86.3404 106 85.9079 106C85.4746 106 85.1124 106.15 84.8587 106.392C84.6042 106.634 84.4582 106.966 84.4582 107.331ZM84.5809 119.717H85.9166H87.2514V114.999V110.28H85.9166H84.5809V114.999V119.717ZM76.6853 119.716V113.63C76.6853 112.755 77.3385 111.992 78.3184 111.992C79.3366 111.992 79.5474 112.737 79.5474 113.704V119.716H82.2179V113.315C82.2179 111.099 81.123 110 79.1058 110C78.1642 110 77.3002 110.335 76.6853 110.968V107.339H74.0148V119.716H76.6853V119.716ZM60.0279 107.358V116.906C60.0279 118.469 60.1812 119.996 62.9484 119.996C63.7942 119.996 64.8115 119.754 65.3881 119.4L64.8115 117.669C64.389 117.837 63.9858 117.967 63.6409 117.967C62.9283 117.967 62.6984 117.557 62.6984 116.534V107.358H60.0279V107.358ZM57.7993 119.716L57.6068 117.837V110.689C56.147 110.168 54.7246 110 54.0714 110C50.6719 110 48.9803 112.141 48.9803 115.417C48.9803 117.929 49.9219 119.977 52.7074 119.977C53.7456 119.977 54.7054 119.605 55.2821 118.748L55.3788 118.768L55.5129 119.716H57.7993V119.716ZM54.9554 116.701C54.9554 117.39 54.3797 118.097 53.3807 118.097C51.9583 118.097 51.6317 116.776 51.6317 115.268C51.6317 113.444 52.17 111.918 53.7456 111.918C54.2447 111.918 54.7054 112.011 54.9554 112.122V116.701V116.701ZM34.6667 107.339V112.271H30.7471V107.339H28V119.717H30.7471V114.598H34.6667V119.717H37.4147V107.339H34.6667ZM47.4435 112.718C47.4435 110.95 46.1945 110 44.2539 110C41.1035 110 39.4704 112.495 39.4704 115.231C39.4704 118.023 40.7769 119.996 44.0422 119.996C45.9838 119.996 47.3286 119.139 47.5585 118.954L46.7903 117.223C46.2529 117.576 45.4263 118.023 44.3889 118.023C42.9282 118.023 42.3133 117.073 42.1792 116.18C44.5039 116.087 47.4435 115.528 47.4435 112.718ZM45.0997 112.738C45.0997 114.021 43.3124 114.319 42.0642 114.357C42.1208 113.072 42.8133 111.825 44.1198 111.825C44.7147 111.825 45.0997 112.178 45.0997 112.738V112.738ZM116.763 112.718C116.763 110.95 115.514 110 113.573 110C110.423 110 108.79 112.495 108.79 115.231C108.79 118.023 110.096 119.996 113.362 119.996C115.303 119.996 116.648 119.139 116.878 118.954L116.109 117.223C115.571 117.576 114.746 118.023 113.708 118.023C112.248 118.023 111.634 117.073 111.499 116.18C113.824 116.087 116.763 115.528 116.763 112.718V112.718ZM114.419 112.738C114.419 114.021 112.632 114.319 111.384 114.357C111.44 113.072 112.133 111.825 113.439 111.825C114.034 111.825 114.419 112.178 114.419 112.738V112.738ZM107.445 112.718C107.445 110.95 106.196 110 104.255 110C101.105 110 99.4717 112.495 99.4717 115.231C99.4717 118.023 100.778 119.996 104.044 119.996C105.985 119.996 107.33 119.139 107.56 118.954L106.792 117.223C106.253 117.576 105.428 118.023 104.39 118.023C102.93 118.023 102.315 117.073 102.18 116.18C104.506 116.087 107.445 115.528 107.445 112.718V112.718ZM105.101 112.738C105.101 114.021 103.314 114.319 102.066 114.357C102.122 113.072 102.815 111.825 104.121 111.825C104.716 111.825 105.101 112.178 105.101 112.738" fill="#EA7939"/>
<path d="M60.519 61.7568C60.8644 62.1009 61.3165 62.2739 61.7704 62.2739C62.2225 62.2739 62.6764 62.1009 63.02 61.7568C63.3672 61.4126 63.539 60.9622 63.539 60.5099C63.539 60.0595 63.3672 59.609 63.02 59.263C62.6764 58.9189 62.2225 58.7477 61.7704 58.7477C61.3165 58.7477 60.8644 58.9189 60.519 59.263C60.1736 59.609 60 60.0595 60 60.5099C60 60.9622 60.1736 61.4126 60.519 61.7568ZM69.4434 52.8649C69.8919 53.3117 70.4796 53.5351 71.0691 53.5351C71.6568 53.5351 72.2464 53.3117 72.6949 52.8649C73.1451 52.418 73.3676 51.8306 73.3676 51.245C73.3676 50.6576 73.1451 50.072 72.6949 49.6251C72.2464 49.1783 71.6568 48.953 71.0691 48.953C70.4796 48.953 69.8919 49.1783 69.4434 49.6251C68.9949 50.072 68.7707 50.6576 68.7707 51.245C68.7707 51.8306 68.9949 52.418 69.4434 52.8649ZM69.4318 71.3862C69.8803 71.8331 70.468 72.0565 71.0576 72.0565C71.6453 72.0565 72.2348 71.8331 72.6833 71.3862C73.1336 70.9394 73.356 70.352 73.356 69.7664C73.356 69.179 73.1336 68.5934 72.6833 68.1465C72.2348 67.6996 71.6453 67.4744 71.0576 67.4744C70.468 67.4744 69.8803 67.6996 69.4318 68.1465C68.9833 68.5934 68.7591 69.179 68.7591 69.7664C68.7591 70.352 68.9833 70.9394 69.4318 71.3862ZM78.254 44.0848C78.8381 44.6668 79.6031 44.9569 80.368 44.9569C81.133 44.9569 81.8979 44.6668 82.482 44.0848C83.0661 43.5028 83.3573 42.7406 83.3573 41.9785C83.3573 41.2163 83.0661 40.4541 82.482 39.8721C81.8979 39.2901 81.133 39 80.368 39C79.6031 39 78.8381 39.2901 78.254 39.8721C77.6699 40.4541 77.3788 41.2163 77.3788 41.9785C77.3788 42.7406 77.6699 43.5028 78.254 44.0848ZM78.2424 62.606C78.8266 63.188 79.5915 63.4781 80.3564 63.4781C81.1214 63.4781 81.8863 63.188 82.4705 62.606C83.0546 62.024 83.3457 61.2618 83.3457 60.4996C83.3457 59.7375 83.0546 58.9753 82.4705 58.3933C81.8863 57.8113 81.1214 57.5212 80.3564 57.5212C79.5915 57.5212 78.8266 57.8113 78.2424 58.3933C77.6583 58.9753 77.3672 59.7375 77.3672 60.4996C77.3672 61.2618 77.6583 62.024 78.2424 62.606ZM78.2323 81.1279C78.8164 81.7099 79.5814 82 80.3463 82C81.1113 82 81.8762 81.7099 82.4603 81.1279C83.0444 80.5459 83.3356 79.7837 83.3356 79.0215C83.3356 78.2594 83.0444 77.4972 82.4603 76.9152C81.8762 76.3332 81.1113 76.0431 80.3463 76.0431C79.5814 76.0431 78.8164 76.3332 78.2323 76.9152C77.6482 77.4972 77.3571 78.2594 77.3571 79.0215C77.3571 79.7837 77.6482 80.5459 78.2323 81.1279ZM86.908 53.9719C87.6658 54.7287 88.6604 55.1053 89.655 55.1053C90.6514 55.1053 91.646 54.7287 92.4055 53.9719C93.1633 53.2169 93.543 52.2259 93.543 51.2349C93.543 50.2439 93.1632 49.2529 92.4037 48.4961C91.6442 47.7393 90.6496 47.3609 89.655 47.3609C88.6604 47.3609 87.6658 47.7393 86.908 48.4943C86.1485 49.2511 85.7688 50.2421 85.7688 51.2331C85.7688 52.2259 86.1485 53.2169 86.908 53.9719ZM86.8994 72.4938C87.6571 73.2506 88.6517 73.6272 89.6463 73.6272C90.6427 73.6272 91.6373 73.2506 92.3969 72.4938C93.1546 71.737 93.5343 70.7478 93.5343 69.7568C93.5343 68.7658 93.1546 67.7748 92.3951 67.018C91.6355 66.2612 90.6409 65.8828 89.6463 65.8828C88.6517 65.8828 87.6571 66.2594 86.8994 67.0162C86.1398 67.773 85.7601 68.764 85.7601 69.755C85.7601 70.7478 86.1398 71.737 86.8994 72.4938V72.4938ZM95.374 64.0496C96.3614 65.0334 97.6526 65.5254 98.9474 65.5254C100.24 65.5254 101.532 65.0334 102.519 64.0496C103.506 63.0658 104 61.7775 104 60.4892C104 59.2009 103.506 57.9144 102.519 56.9305C101.532 55.9467 100.24 55.4548 98.9474 55.4548C97.6526 55.4548 96.3614 55.9467 95.374 56.9305C94.3866 57.9144 93.8929 59.2009 93.8929 60.4892C93.8929 61.7775 94.3866 63.0658 95.374 64.0496Z" fill="#EA7939"/>
</svg>
