<svg width="160" height="160" viewBox="0 0 160 160" fill="none" xmlns="http://www.w3.org/2000/svg">
<path d="M79.1362 18.4808L17.8773 123.496C17.4884 124.163 17.9692 125 18.741 125H141.259C142.031 125 142.512 124.163 142.123 123.496L80.8638 18.4808C80.4779 17.8193 79.5221 17.8193 79.1362 18.4808Z" fill="#173BB1"/>
<path d="M68.2704 75H58.8498C58.4685 75 58.2275 75.4096 58.4127 75.7428L79.7905 114.223C79.9799 114.564 80.4692 114.566 80.6621 114.228L102.574 75.7474C102.764 75.4141 102.523 75 102.14 75H92.174C91.9973 75 91.8337 75.0933 91.7437 75.2454L80.6525 93.991C80.459 94.3182 79.9855 94.3182 79.7919 93.991L68.7007 75.2454C68.6108 75.0933 68.4472 75 68.2704 75Z" fill="white"/>
</svg>
